<svg width="42" height="47" viewBox="0 0 42 47" fill="none" xmlns="http://www.w3.org/2000/svg">
<path d="M26.8333 37.3333C25.2 37.3333 23.8194 36.7694 22.6917 35.6417C21.5639 34.5139 21 33.1333 21 31.5C21 29.8667 21.5639 28.4861 22.6917 27.3583C23.8194 26.2306 25.2 25.6667 26.8333 25.6667C28.4667 25.6667 29.8472 26.2306 30.975 27.3583C32.1028 28.4861 32.6667 29.8667 32.6667 31.5C32.6667 33.1333 32.1028 34.5139 30.975 35.6417C29.8472 36.7694 28.4667 37.3333 26.8333 37.3333ZM4.66667 46.6667C3.38333 46.6667 2.28511 46.2101 1.372 45.297C0.458889 44.3839 0.00155556 43.2849 0 42V9.33333C0 8.05 0.457333 6.95178 1.372 6.03867C2.28667 5.12556 3.38489 4.66822 4.66667 4.66667H7V0H11.6667V4.66667H30.3333V0H35V4.66667H37.3333C38.6167 4.66667 39.7157 5.124 40.6303 6.03867C41.545 6.95333 42.0016 8.05156 42 9.33333V42C42 43.2833 41.5434 44.3823 40.6303 45.297C39.7172 46.2117 38.6182 46.6682 37.3333 46.6667H4.66667ZM4.66667 42H37.3333V18.6667H4.66667V42Z" fill="#8B5CF6"/>
</svg>
