<svg xmlns="http://www.w3.org/2000/svg" width="32" height="32" viewBox="0 0 32 32" fill="none">
  <path d="M25.68 3H4.32C3.96991 3 3.63417 3.13907 3.38662 3.38662C3.13907 3.63417 3 3.96991 3 4.32V25.68C3 26.0301 3.13907 26.3658 3.38662 26.6134C3.63417 26.8609 3.96991 27 4.32 27H15.816V17.7H12.696V14.1H15.816V11.4C15.7514 10.7661 15.8262 10.1258 16.0353 9.52385C16.2443 8.92194 16.5825 8.37305 17.0262 7.91569C17.4698 7.45833 18.0081 7.10357 18.6034 6.87629C19.1987 6.649 19.8364 6.5547 20.472 6.6C21.406 6.59355 22.3396 6.64163 23.268 6.744V9.984H21.36C19.848 9.984 19.56 10.704 19.56 11.748V14.064H23.16L22.692 17.664H19.56V27H25.68C25.8533 27 26.025 26.9659 26.1851 26.8995C26.3453 26.8332 26.4908 26.736 26.6134 26.6134C26.736 26.4908 26.8332 26.3453 26.8995 26.1851C26.9659 26.025 27 25.8533 27 25.68V4.32C27 4.14666 26.9659 3.97501 26.8995 3.81486C26.8332 3.65471 26.736 3.50919 26.6134 3.38662C26.4908 3.26405 26.3453 3.16682 26.1851 3.10048C26.025 3.03414 25.8533 3 25.68 3Z" fill="white"/>
</svg>