<svg width="47" height="47" viewBox="0 0 47 47" fill="none" xmlns="http://www.w3.org/2000/svg">
<path d="M46.6667 32.6667V4.66667C46.6667 3.42899 46.175 2.242 45.2998 1.36683C44.4247 0.491665 43.2377 0 42 0H14C12.7623 0 11.5753 0.491665 10.7002 1.36683C9.825 2.242 9.33333 3.42899 9.33333 4.66667V32.6667C9.33333 33.9043 9.825 35.0913 10.7002 35.9665C11.5753 36.8417 12.7623 37.3333 14 37.3333H42C43.2377 37.3333 44.4247 36.8417 45.2998 35.9665C46.175 35.0913 46.6667 33.9043 46.6667 32.6667ZM21 23.3333L25.7367 29.6567L32.6667 21L42 32.6667H14M0 9.33333V42C0 43.2377 0.491665 44.4247 1.36683 45.2998C2.242 46.175 3.42899 46.6667 4.66667 46.6667H37.3333V42H4.66667V9.33333" fill="#8B5CF6"/>
</svg>
