<svg xmlns="http://www.w3.org/2000/svg" width="32" height="32" viewBox="0 0 32 32" fill="none">
  <path d="M10.4001 2.66699H21.6001C25.8667 2.66699 29.3334 6.13366 29.3334 10.4003V21.6003C29.3334 23.6513 28.5187 25.6183 27.0684 27.0686C25.6181 28.5189 23.6511 29.3337 21.6001 29.3337H10.4001C6.13341 29.3337 2.66675 25.867 2.66675 21.6003V10.4003C2.66675 8.34932 3.48151 6.38231 4.93179 4.93203C6.38207 3.48175 8.34907 2.66699 10.4001 2.66699ZM10.1334 5.33366C8.86037 5.33366 7.63948 5.83937 6.7393 6.73955C5.83913 7.63972 5.33341 8.86062 5.33341 10.1337V21.867C5.33341 24.5203 7.48008 26.667 10.1334 26.667H21.8667C23.1398 26.667 24.3607 26.1613 25.2609 25.2611C26.161 24.3609 26.6667 23.14 26.6667 21.867V10.1337C26.6667 7.48033 24.5201 5.33366 21.8667 5.33366H10.1334ZM23.0001 7.33366C23.4421 7.33366 23.866 7.50925 24.1786 7.82181C24.4912 8.13437 24.6667 8.5583 24.6667 9.00033C24.6667 9.44235 24.4912 9.86628 24.1786 10.1788C23.866 10.4914 23.4421 10.667 23.0001 10.667C22.5581 10.667 22.1341 10.4914 21.8216 10.1788C21.509 9.86628 21.3334 9.44235 21.3334 9.00033C21.3334 8.5583 21.509 8.13437 21.8216 7.82181C22.1341 7.50925 22.5581 7.33366 23.0001 7.33366ZM16.0001 9.33366C17.7682 9.33366 19.4639 10.036 20.7141 11.2863C21.9644 12.5365 22.6667 14.2322 22.6667 16.0003C22.6667 17.7684 21.9644 19.4641 20.7141 20.7144C19.4639 21.9646 17.7682 22.667 16.0001 22.667C14.232 22.667 12.5363 21.9646 11.286 20.7144C10.0358 19.4641 9.33341 17.7684 9.33341 16.0003C9.33341 14.2322 10.0358 12.5365 11.286 11.2863C12.5363 10.036 14.232 9.33366 16.0001 9.33366ZM16.0001 12.0003C14.9392 12.0003 13.9218 12.4218 13.1717 13.1719C12.4215 13.922 12.0001 14.9395 12.0001 16.0003C12.0001 17.0612 12.4215 18.0786 13.1717 18.8288C13.9218 19.5789 14.9392 20.0003 16.0001 20.0003C17.0609 20.0003 18.0784 19.5789 18.8285 18.8288C19.5787 18.0786 20.0001 17.0612 20.0001 16.0003C20.0001 14.9395 19.5787 13.922 18.8285 13.1719C18.0784 12.4218 17.0609 12.0003 16.0001 12.0003Z" fill="white"/>
</svg>