<svg xmlns="http://www.w3.org/2000/svg" width="32" height="32" viewBox="0 0 32 32" fill="none">
  <path d="M15.9998 15.3327C15.1158 15.3327 14.2679 14.9815 13.6428 14.3564C13.0177 13.7312 12.6665 12.8834 12.6665 11.9993C12.6665 11.1153 13.0177 10.2674 13.6428 9.64233C14.2679 9.0172 15.1158 8.66602 15.9998 8.66602C16.8839 8.66602 17.7317 9.0172 18.3569 9.64233C18.982 10.2674 19.3332 11.1153 19.3332 11.9993C19.3332 12.4371 19.247 12.8705 19.0794 13.275C18.9119 13.6794 18.6664 14.0468 18.3569 14.3564C18.0473 14.6659 17.6799 14.9114 17.2754 15.0789C16.871 15.2465 16.4376 15.3327 15.9998 15.3327ZM15.9998 2.66602C13.5245 2.66602 11.1505 3.64935 9.40017 5.39969C7.64983 7.15002 6.6665 9.52399 6.6665 11.9993C6.6665 18.9993 15.9998 29.3327 15.9998 29.3327C15.9998 29.3327 25.3332 18.9993 25.3332 11.9993C25.3332 9.52399 24.3498 7.15002 22.5995 5.39969C20.8492 3.64935 18.4752 2.66602 15.9998 2.66602Z"/>
</svg>