<svg width="47" height="47" viewBox="0 0 47 47" fill="none" xmlns="http://www.w3.org/2000/svg">
<path d="M16.3333 32.6667H30.3333C30.9944 32.6667 31.549 32.4427 31.997 31.9947C32.445 31.5467 32.6682 30.9929 32.6667 30.3333V16.3333C32.6667 15.6722 32.4427 15.1184 31.9947 14.672C31.5467 14.2256 30.9929 14.0016 30.3333 14H16.3333C15.6722 14 15.1184 14.224 14.672 14.672C14.2256 15.12 14.0016 15.6738 14 16.3333V30.3333C14 30.9944 14.224 31.549 14.672 31.997C15.12 32.445 15.6738 32.6682 16.3333 32.6667ZM23.3333 46.6667C20.1056 46.6667 17.0722 46.0538 14.2333 44.828C11.3944 43.6022 8.925 41.9401 6.825 39.8417C4.725 37.7432 3.06289 35.2738 1.83867 32.4333C0.614448 29.5929 0.00155851 26.5596 2.95359e-06 23.3333C-0.0015526 20.1071 0.611336 17.0738 1.83867 14.2333C3.066 11.3929 4.72811 8.92344 6.825 6.825C8.92189 4.72656 11.3913 3.06444 14.2333 1.83867C17.0753 0.612889 20.1087 0 23.3333 0C26.558 0 29.5913 0.612889 32.4333 1.83867C35.2753 3.06444 37.7448 4.72656 39.8417 6.825C41.9386 8.92344 43.6014 11.3929 44.8303 14.2333C46.0592 17.0738 46.6713 20.1071 46.6667 23.3333C46.662 26.5596 46.0491 29.5929 44.828 32.4333C43.6069 35.2738 41.9448 37.7432 39.8417 39.8417C37.7386 41.9401 35.2691 43.603 32.4333 44.8303C29.5976 46.0577 26.5642 46.6698 23.3333 46.6667ZM23.3333 42C28.5444 42 32.9583 40.1917 36.575 36.575C40.1917 32.9583 42 28.5444 42 23.3333C42 18.1222 40.1917 13.7083 36.575 10.0917C32.9583 6.475 28.5444 4.66667 23.3333 4.66667C18.1222 4.66667 13.7083 6.475 10.0917 10.0917C6.475 13.7083 4.66667 18.1222 4.66667 23.3333C4.66667 28.5444 6.475 32.9583 10.0917 36.575C13.7083 40.1917 18.1222 42 23.3333 42Z" fill="white"/>
</svg>
