<svg xmlns="http://www.w3.org/2000/svg" width="23" height="23" viewBox="0 0 23 23" fill="none">
  <path fill-rule="evenodd" clip-rule="evenodd" d="M16.438 0.326612C17.7202 0.0684318 19.0285 -0.0373016 20.3355 0.0116119C20.6374 0.0233437 20.9238 0.148533 21.1374 0.362179C21.3511 0.575824 21.4763 0.8622 21.488 1.16411C21.518 1.87211 21.5215 3.36361 21.173 5.06161C20.968 6.06311 19.7635 6.33461 19.0995 5.67011L18.141 4.71211C17.7677 5.0498 17.3989 5.39233 17.0345 5.73961C16.089 6.64011 14.903 7.83061 13.9025 9.01911C13.0515 10.0301 11.419 10.0231 10.62 8.90411C10.1148 8.19466 9.58988 7.49939 9.046 6.81911C7.929 7.58361 5.61 9.34311 3.003 12.3241C2.841 12.5091 2.67833 12.6988 2.515 12.8931C2.34413 13.096 2.09967 13.2227 1.83538 13.2454C1.5711 13.268 1.30864 13.1847 1.10575 13.0139C0.902859 12.843 0.776155 12.5985 0.75351 12.3342C0.730865 12.07 0.814134 11.8075 0.985 11.6046C1.157 11.4013 1.32767 11.2024 1.497 11.0081C4.292 7.81211 6.7905 5.93211 7.9935 5.11611C8.835 4.54561 9.939 4.74211 10.5565 5.50611C11.1414 6.23484 11.7052 6.98032 12.247 7.74161C12.2506 7.74617 12.255 7.75007 12.26 7.75311C12.2716 7.75805 12.2839 7.76076 12.2965 7.76111C12.3106 7.76208 12.3247 7.75989 12.3379 7.7547C12.351 7.74951 12.3629 7.74145 12.3725 7.73111C13.4405 6.46261 14.6855 5.21511 15.6545 4.29161C16.071 3.89511 16.4395 3.55511 16.725 3.29661L15.83 2.39961C15.1655 1.73561 15.437 0.531612 16.4385 0.326112M16.1325 20.6111C16.0665 19.7061 16.0005 18.0916 16.0005 15.2486C16.0005 12.4056 16.0665 10.7916 16.1325 9.88561C16.2055 8.88061 16.9395 8.09661 17.9835 8.03261C18.3155 8.01261 18.732 7.99861 19.2505 7.99861C19.769 7.99861 20.1855 8.01261 20.5175 8.03261C21.5615 8.09661 22.2955 8.88061 22.3685 9.88561C22.4345 10.7916 22.5005 12.4056 22.5005 15.2486C22.5005 18.0916 22.4345 19.7056 22.3685 20.6116C22.2955 21.6166 21.5615 22.4006 20.5175 22.4646C20.1855 22.4846 19.769 22.4986 19.2505 22.4986C18.732 22.4986 18.3155 22.4846 17.9835 22.4646C16.9395 22.4006 16.2055 21.6161 16.1325 20.6111ZM0.085 20.8841C0.0365 20.4121 0 19.7321 0 18.7491C0 17.7661 0.0365 17.0861 0.0845 16.6141C0.185 15.6191 0.9835 15.0486 1.858 15.0191C2.32186 15.0048 2.78592 14.9981 3.25 14.9991C3.8435 14.9991 4.2985 15.0076 4.642 15.0191C5.5165 15.0486 6.315 15.6191 6.4155 16.6141C6.4635 17.0861 6.5 17.7661 6.5 18.7491C6.5 19.7321 6.4635 20.4121 6.416 20.8841C6.315 21.8791 5.516 22.4496 4.642 22.4791C4.2985 22.4906 3.8435 22.4991 3.25 22.4991C2.6565 22.4991 2.2015 22.4906 1.858 22.4791C0.9835 22.4496 0.1855 21.8791 0.085 20.8841ZM8 17.2491C8 18.9546 8.0495 20.0311 8.1065 20.7076C8.1925 21.7316 8.9765 22.4311 9.9665 22.4746C10.2985 22.4891 10.7195 22.4991 11.25 22.4991C11.7805 22.4991 12.2015 22.4891 12.5335 22.4741C13.5235 22.4311 14.3075 21.7316 14.3935 20.7076C14.4505 20.0311 14.5 18.9546 14.5 17.2491C14.5 15.5436 14.4505 14.4671 14.394 13.7906C14.3075 12.7666 13.524 12.0671 12.5335 12.0236C12.2015 12.0091 11.7805 11.9991 11.25 11.9991C10.7195 11.9991 10.2985 12.0091 9.967 12.0241C8.9765 12.0671 8.192 12.7666 8.106 13.7906C8.05 14.4671 8 15.5436 8 17.2491Z" fill="white"/>
</svg>