<svg width="20" height="20" viewBox="0 0 20 20" fill="none" xmlns="http://www.w3.org/2000/svg">
<path d="M17.938 11C17.7154 12.7624 16.9129 14.4007 15.6568 15.6568C14.4007 16.9129 12.7624 17.7154 11 17.938V20H9V17.938C7.23761 17.7154 5.59934 16.9129 4.34324 15.6568C3.08713 14.4007 2.28459 12.7624 2.062 11H0V9H2.062C2.28459 7.23761 3.08713 5.59934 4.34324 4.34324C5.59934 3.08713 7.23761 2.28459 9 2.062V0H11V2.062C12.7624 2.28459 14.4007 3.08713 15.6568 4.34324C16.9129 5.59934 17.7154 7.23761 17.938 9H20V11H17.938ZM10 16C11.5913 16 13.1174 15.3679 14.2426 14.2426C15.3679 13.1174 16 11.5913 16 10C16 8.4087 15.3679 6.88258 14.2426 5.75736C13.1174 4.63214 11.5913 4 10 4C8.4087 4 6.88258 4.63214 5.75736 5.75736C4.63214 6.88258 4 8.4087 4 10C4 11.5913 4.63214 13.1174 5.75736 14.2426C6.88258 15.3679 8.4087 16 10 16ZM10 13C10.7956 13 11.5587 12.6839 12.1213 12.1213C12.6839 11.5587 13 10.7956 13 10C13 9.20435 12.6839 8.44129 12.1213 7.87868C11.5587 7.31607 10.7956 7 10 7C9.20435 7 8.44129 7.31607 7.87868 7.87868C7.31607 8.44129 7 9.20435 7 10C7 10.7956 7.31607 11.5587 7.87868 12.1213C8.44129 12.6839 9.20435 13 10 13Z" fill="#8B5CF6"/>
</svg>
