<svg xmlns="http://www.w3.org/2000/svg" width="24" height="28" viewBox="0 0 24 28" fill="none">
  <path d="M3.42857 1.75C1.5375 1.75 0 3.31953 0 5.25V22.75C0 24.6805 1.5375 26.25 3.42857 26.25H20.5714C22.4625 26.25 24 24.6805 24 22.75V5.25C24 3.31953 22.4625 1.75 20.5714 1.75H3.42857ZM19.3446 6.34375L13.7839 12.8297L20.325 21.6562H15.2036L11.1964 16.3023L6.60536 21.6562H4.06071L10.0071 14.7164L3.73393 6.34375H8.98393L12.6107 11.2383L16.8 6.34375H19.3446ZM17.3196 20.1031L8.21786 7.81484H6.70179L15.9054 20.1031H17.3143H17.3196Z" fill="white"/>
</svg>